<!DOCTYPE svg PUBLIC "-//W3C//DTD SVG 1.1//EN" "http://www.w3.org/Graphics/SVG/1.1/DTD/svg11.dtd">
<!-- Uploaded to: SVG Repo, www.svgrepo.com, Transformed by: SVG Repo Mixer Tools -->
<svg width="89px" height="89px" viewBox="0 0 24 24" version="1.1" xmlns="http://www.w3.org/2000/svg" xmlns:xlink="http://www.w3.org/1999/xlink" fill="#000000">
<g id="SVGRepo_bgCarrier" stroke-width="0"/>
<g id="SVGRepo_tracerCarrier" stroke-linecap="round" stroke-linejoin="round"/>
<g id="SVGRepo_iconCarrier"> <title>Kebab-Menu</title> <g id="Kebab-Menu" stroke="none" stroke-width="1" fill="none" fill-rule="evenodd"> <rect id="Container" x="0" y="0" width="24" height="24"> </rect> <path d="M12,6 C12.5522847,6 13,5.55228475 13,5 C13,4.44771525 12.5522847,4 12,4 C11.4477153,4 11,4.44771525 11,5 C11,5.55228475 11.4477153,6 12,6 Z" id="shape-03" stroke="#ffffff" stroke-width="2" stroke-linecap="round" stroke-dasharray="0,0"> </path> <path d="M12,13 C12.5522847,13 13,12.5522847 13,12 C13,11.4477153 12.5522847,11 12,11 C11.4477153,11 11,11.4477153 11,12 C11,12.5522847 11.4477153,13 12,13 Z" id="shape-03" stroke="#ffffff" stroke-width="2" stroke-linecap="round" stroke-dasharray="0,0"> </path> <path d="M12,20 C12.5522847,20 13,19.5522847 13,19 C13,18.4477153 12.5522847,18 12,18 C11.4477153,18 11,18.4477153 11,19 C11,19.5522847 11.4477153,20 12,20 Z" id="shape-03" stroke="#ffffff" stroke-width="2" stroke-linecap="round" stroke-dasharray="0,0"> </path> </g> </g>
</svg>